<svg width="48" height="35" viewBox="0 0 48 35" xmlns="http://www.w3.org/2000/svg"><path fill="#FFFFFF" d="M24 0C10.7 0 0 10.7 0 24c0 7.4 3.4 14 8.6 18.2.5.4 1.2.2 1.5-.4l1.3-2.1c.3-.5.1-1.2-.4-1.5C6.5 35.1 4 30 4 24 4 12.9 12.9 4 24 4s20 8.9 20 20c0 6-2.5 11.1-7 14.2-.5.3-1.1 0-1.4-.5l-1.3-2.1c-.3-.5-.1-1.2.4-1.5 3.3-2 5.3-5.7 5.3-9.8 0-6.6-5.4-12-12-12S12 17.4 12 24h24c.6 0 1 .4 1 1v4h-2v-3H14v-1c0-5.5 4.5-10 10-10s10 4.5 10 10v1H21.5c-2.8 0-5.1 2.3-5.1 5.1V35h15.2c6.5-2.6 11.4-8.7 11.4-16.1C48 10.7 37.3 0 24 0z"/><circle fill="#70c5f5" cx="24" cy="18" r="15"/></svg>
