<svg width="42" height="50" viewBox="0 0 42 50" xmlns="http://www.w3.org/2000/svg"><path fill="#FFFFFF" d="M21 0C9.4 0 0 9.4 0 21c0 11.3 8.3 20.7 19 21.9V50h-2v-6h-4v6h10v-7.1c10.7-1.2 19-10.6 19-21.9C42 9.4 32.6 0 21 0zm-2 29h-4v-4h4v4zm8 0h-4v-4h4v4z"/><circle fill="#70c5f5" cx="21" cy="21" r="18"/><path fill="#FFFFFF" d="M34.3 15.7c-3.1-3.1-7.2-4.8-11.8-4.8s-8.7 1.7-11.8 4.8c-.6.6-.6 1.5 0 2.1l1.4 1.4c.6.6 1.5.6 2.1 0 2.2-2.2 5.1-3.4 8.3-3.4s6.1 1.2 8.3 3.4c.6.6 1.5.6 2.1 0l1.4-1.4c.6-.5.6-1.5 0-2.1z"/></svg>
